<?xml version="1.0" encoding="UTF-8"?>
<!DOCTYPE svg PUBLIC "-//W3C//DTD SVG 1.1//EN" "http://www.w3.org/Graphics/SVG/1.1/DTD/svg11.dtd">
<!-- Creator: CorelDRAW -->
<svg xmlns="http://www.w3.org/2000/svg" xml:space="preserve" width="512px" height="512px" version="1.1" style="shape-rendering:geometricPrecision; text-rendering:geometricPrecision; image-rendering:optimizeQuality; fill-rule:evenodd; clip-rule:evenodd"
viewBox="0 0 512 512"
 xmlns:xlink="http://www.w3.org/1999/xlink">
 <defs>
  <style type="text/css">
   <![CDATA[
    .fil0 {fill:black}
   ]]>
  </style>
 </defs>
 <g id="Layer_x0020_1">
  <metadata id="CorelCorpID_0Corel-Layer"/>
  <g id="_408877176">
   <g>
    <path class="fil0" d="M282 379l-154 0c-4,0 -7,-3 -7,-7 0,-4 3,-7 7,-7l154 0c4,0 7,3 7,7 0,4 -3,7 -7,7z"/>
   </g>
   <g>
    <path class="fil0" d="M348 512l-303 0c-17,0 -30,-13 -30,-30l0 -404c0,-17 13,-30 30,-30l12 0c4,0 7,3 7,7 0,4 -3,7 -7,7l-12 0c-9,0 -16,7 -16,16l0 404c0,9 7,16 16,16l303 0c9,0 16,-7 16,-16l0 -155c0,-4 3,-7 7,-7 4,0 7,3 7,7l0 155c0,17 -13,30 -30,30zm23 -271c-4,0 -7,-3 -7,-7l0 -156c0,-9 -7,-16 -16,-16l-12 0c-4,0 -7,-3 -7,-7 0,-4 3,-7 7,-7l12 0c17,0 30,13 30,30l0 156c0,4 -3,7 -7,7zm-75 -179l-40 0c-4,0 -7,-3 -7,-7 0,-4 3,-7 7,-7l40 0c4,0 7,3 7,7 0,4 -3,7 -7,7zm-80 0l-39 0c-4,0 -7,-3 -7,-7 0,-4 3,-7 7,-7l39 0c4,0 7,3 7,7 0,4 -3,7 -7,7zm-79 0l-40 0c-4,0 -7,-3 -7,-7 0,-4 3,-7 7,-7l40 0c4,0 7,3 7,7 0,4 -3,7 -7,7z"/>
   </g>
   <g>
    <g>
     <path class="fil0" d="M77 118c-15,0 -27,-12 -27,-27l0 -64c0,-15 12,-27 27,-27 15,0 27,12 27,27l0 64c0,15 -12,27 -27,27zm0 -104c-7,0 -13,6 -13,13l0 64c0,7 6,13 13,13 7,0 13,-6 13,-13l0 -64c0,-7 -6,-13 -13,-13z"/>
    </g>
    <g>
     <path class="fil0" d="M157 118c-15,0 -27,-12 -27,-27l0 -64c0,-15 12,-27 27,-27 15,0 27,12 27,27l0 64c0,15 -12,27 -27,27zm0 -104c-7,0 -13,6 -13,13l0 64c0,7 6,13 13,13 7,0 13,-6 13,-13l0 -64c0,-7 -6,-13 -13,-13z"/>
    </g>
    <g>
     <path class="fil0" d="M236 118c-15,0 -27,-12 -27,-27l0 -64c0,-15 12,-27 27,-27 15,0 27,12 27,27l0 64c0,15 -12,27 -27,27zm0 -104c-7,0 -13,6 -13,13l0 64c0,7 6,13 13,13 7,0 13,-6 13,-13l0 -64c0,-7 -6,-13 -13,-13z"/>
    </g>
    <g>
     <path class="fil0" d="M316 118c-15,0 -27,-12 -27,-27l0 -64c0,-15 12,-27 27,-27 15,0 27,12 27,27l0 64c0,15 -12,27 -27,27zm0 -104c-7,0 -13,6 -13,13l0 64c0,7 6,13 13,13 7,0 13,-6 13,-13l0 -64c0,-7 -6,-13 -13,-13z"/>
    </g>
   </g>
   <g>
    <path class="fil0" d="M302 188l-211 0c-4,0 -7,-3 -7,-7 0,-4 3,-7 7,-7l211 0c4,0 7,3 7,7 0,4 -3,7 -7,7z"/>
   </g>
   <g>
    <path class="fil0" d="M305 251l-177 0c-4,0 -7,-3 -7,-7 0,-4 3,-7 7,-7l177 0c4,0 7,3 7,7 0,4 -3,7 -7,7z"/>
   </g>
   <g>
    <path class="fil0" d="M265 315l-169 0c-4,0 -7,-3 -7,-7 0,-4 3,-7 7,-7l169 0c4,0 7,3 7,7 0,4 -3,7 -7,7z"/>
   </g>
   <g>
    <path class="fil0" d="M263 443l-167 0c-4,0 -7,-3 -7,-7 0,-4 3,-7 7,-7l167 0c4,0 7,3 7,7 0,4 -3,7 -7,7z"/>
   </g>
   <g>
    <path class="fil0" d="M330 395c-2,0 -3,0 -4,-1l-44 -29c-2,-1 -3,-3 -3,-5 0,-2 0,-3 1,-5l158 -233c6,-9 19,-12 28,-6 0,0 0,0 0,0l23 16c4,3 7,8 8,13 1,4 0,9 -3,13l-158 234c-2,2 -4,3 -6,3zm-34 -38l32 21 154 -228c0,0 0,0 0,0 1,-1 1,-2 1,-3 0,-1 -1,-2 -2,-3 0,0 0,0 0,0l-23 -16c-2,-1 -3,-1 -4,-1 -2,0 -3,1 -4,3l-154 227z"/>
   </g>
   <g>
    <path class="fil0" d="M262 446c-2,0 -3,0 -4,-1 -3,-2 -4,-5 -3,-8l24 -80c1,-4 5,-6 9,-5 3,1 6,5 4,9l-17 59 51 -38c3,-2 7,-1 9,2 3,3 2,7 -1,9l-68 51c-1,1 -3,2 -4,2z"/>
   </g>
   <g>
    <path class="fil0" d="M469 191c-2,0 -3,0 -4,-1l-44 -30c-3,-2 -4,-7 -2,-10 2,-3 7,-4 10,-2l44 30c3,3 4,7 2,10 -2,2 -4,3 -6,3z"/>
   </g>
   <g>
    <path class="fil0" d="M308 381c-2,0 -3,0 -4,-1 -3,-2 -4,-7 -2,-10l139 -205c2,-3 6,-4 10,-2 3,2 4,7 2,10l-139 205c-2,2 -4,3 -6,3z"/>
   </g>
  </g>
 </g>
</svg>
