<?xml version="1.0" encoding="UTF-8"?>
<!DOCTYPE svg PUBLIC "-//W3C//DTD SVG 1.1//EN" "http://www.w3.org/Graphics/SVG/1.1/DTD/svg11.dtd">
<!-- Creator: CorelDRAW -->
<svg xmlns="http://www.w3.org/2000/svg" xml:space="preserve" width="512px" height="512px" version="1.1" style="shape-rendering:geometricPrecision; text-rendering:geometricPrecision; image-rendering:optimizeQuality; fill-rule:evenodd; clip-rule:evenodd"
viewBox="0 0 512 512"
 xmlns:xlink="http://www.w3.org/1999/xlink">
 <defs>
  <style type="text/css">
   <![CDATA[
    .fil0 {fill:#000002}
   ]]>
  </style>
 </defs>
 <g id="Layer_x0020_1">
  <metadata id="CorelCorpID_0Corel-Layer"/>
  <g id="_519085600">
   <g>
    <g>
     <path class="fil0" d="M484 406l-314 0c-4,0 -7,-3 -7,-6l0 -393c0,-4 3,-7 7,-7l314 0c4,0 7,3 7,7l0 393c0,3 -3,6 -7,6zm-308 -13l302 0 0 -379 -302 0 0 379z"/>
    </g>
    <g>
     <path class="fil0" d="M63 459c-4,0 -7,-3 -7,-7l0 -101c0,-4 3,-7 7,-7l21 0c4,0 7,-3 7,-7 0,-3 -3,-6 -7,-6l-21 0c-4,0 -7,-3 -7,-7l0 -45c0,-4 3,-7 7,-7l21 0c4,0 7,-3 7,-6 0,-4 -3,-7 -7,-7l-21 0c-4,0 -7,-3 -7,-7l0 -45c0,-3 3,-6 7,-6l21 0c4,0 7,-4 7,-7 0,-4 -3,-7 -7,-7l-21 0c-4,0 -7,-3 -7,-7l0 -45c0,-3 3,-6 7,-6l21 0c4,0 7,-4 7,-7 0,-4 -3,-7 -7,-7l-21 0c-4,0 -7,-3 -7,-7l0 -38c0,-39 32,-70 70,-70l44 0c3,0 6,3 6,7l0 393c0,3 -3,6 -6,6l-54 0c-26,0 -46,21 -46,46 0,4 -3,7 -7,7zm7 -101l0 56c11,-13 27,-21 46,-21l47 0 0 -379 -37 0c-31,0 -56,25 -56,56l0 31 14 0c12,0 21,9 21,21 0,11 -9,20 -21,20l-14 0 0 31 14 0c12,0 21,9 21,21 0,11 -9,20 -21,20l-14 0 0 31 14 0c12,0 21,9 21,21 0,11 -9,20 -21,20l-14 0 0 31 14 0c12,0 21,9 21,20 0,12 -9,21 -21,21l-14 0 0 0z"/>
    </g>
    <g>
     <path class="fil0" d="M484 512c0,0 0,0 0,0l-368 0c-33,0 -60,-27 -60,-60 0,-32 27,-59 60,-59l368 0c4,0 7,3 7,7 0,3 -3,6 -7,6 -27,0 -49,21 -49,46 0,26 22,46 49,46 0,0 0,0 0,0l0 0c4,0 7,3 7,7 0,4 -3,7 -7,7zm-368 -106c-26,0 -46,21 -46,46 0,26 20,46 46,46l328 0c-14,-11 -23,-27 -23,-46 0,-18 9,-35 23,-46l-328 0z"/>
    </g>
    <g>
     <path class="fil0" d="M428 459l-263 0c-4,0 -7,-3 -7,-7 0,-3 3,-6 7,-6l263 0c4,0 7,3 7,6 0,4 -3,7 -7,7z"/>
    </g>
    <g>
     <path class="fil0" d="M84 142l-43 0c-11,0 -20,-9 -20,-20 0,-12 9,-21 20,-21l43 0c12,0 21,9 21,21 0,11 -9,20 -21,20zm-43 -27c-4,0 -7,3 -7,7 0,3 3,7 7,7l43 0c4,0 7,-4 7,-7 0,-4 -3,-7 -7,-7l-43 0z"/>
    </g>
    <g>
     <path class="fil0" d="M84 214l-43 0c-11,0 -20,-9 -20,-20 0,-12 9,-21 20,-21l43 0c12,0 21,9 21,21 0,11 -9,20 -21,20zm-43 -27c-4,0 -7,3 -7,7 0,3 3,7 7,7l43 0c4,0 7,-4 7,-7 0,-4 -3,-7 -7,-7l-43 0z"/>
    </g>
    <g>
     <path class="fil0" d="M84 286l-43 0c-11,0 -20,-9 -20,-20 0,-12 9,-21 20,-21l43 0c12,0 21,9 21,21 0,11 -9,20 -21,20zm-43 -27c-4,0 -7,3 -7,7 0,3 3,6 7,6l43 0c4,0 7,-3 7,-6 0,-4 -3,-7 -7,-7l-43 0z"/>
    </g>
    <g>
     <path class="fil0" d="M84 358l-43 0c-11,0 -20,-9 -20,-21 0,-11 9,-20 20,-20l43 0c12,0 21,9 21,20 0,12 -9,21 -21,21zm-43 -27c-4,0 -7,3 -7,6 0,4 3,7 7,7l43 0c4,0 7,-3 7,-7 0,-3 -3,-6 -7,-6l-43 0z"/>
    </g>
    <g>
     <path class="fil0" d="M436 356l-218 0c-4,0 -7,-3 -7,-7 0,-4 3,-7 7,-7l218 0c4,0 7,3 7,7 0,4 -3,7 -7,7z"/>
    </g>
    <g>
     <path class="fil0" d="M436 311l-218 0c-4,0 -7,-3 -7,-6 0,-4 3,-7 7,-7l218 0c4,0 7,3 7,7 0,3 -3,6 -7,6z"/>
    </g>
    <g>
     <path class="fil0" d="M436 267l-218 0c-4,0 -7,-3 -7,-7 0,-4 3,-7 7,-7l218 0c4,0 7,3 7,7 0,4 -3,7 -7,7z"/>
    </g>
    <g>
     <path class="fil0" d="M327 222c-47,0 -86,-39 -86,-86 0,-47 39,-86 86,-86 47,0 86,39 86,86 0,47 -39,86 -86,86zm0 -158c-40,0 -72,32 -72,72 0,40 32,72 72,72 40,0 72,-32 72,-72 0,-40 -32,-72 -72,-72z"/>
    </g>
    <g>
     <path class="fil0" d="M315 168l0 0c-2,0 -4,0 -5,-2l-26 -26c-3,-3 -3,-7 0,-10 2,-3 7,-3 9,0l22 22 46 -46c2,-3 7,-3 9,0 3,3 3,7 0,10l-50 50c-1,2 -3,2 -5,2z"/>
    </g>
   </g>
  </g>
 </g>
</svg>
