<?xml version="1.0" encoding="utf-8"?>
<!-- Generator: Adobe Illustrator 25.4.1, SVG Export Plug-In . SVG Version: 6.00 Build 0)  -->
<svg version="1.1" id="Layer_1" xmlns="http://www.w3.org/2000/svg" xmlns:xlink="http://www.w3.org/1999/xlink" x="0px" y="0px"
	 viewBox="0 0 64 64" style="enable-background:new 0 0 64 64;" xml:space="preserve">
<path d="M61.7705078,20.8388672l-30.75-10.875c-0.2246094-0.0791016-0.4716797-0.0761719-0.6933594,0.0097656l-28.125,10.875
	c-0.3876953,0.1494141-0.6416016,0.5224609-0.6396484,0.9375s0.2597656,0.7851562,0.6484375,0.9316406l13.7861328,5.1807861
	V41.09375c0,0.4052734,0.2451172,0.7705078,0.6201172,0.9248047l14.6103516,6
	c0.1220703,0.0498047,0.2509766,0.0751953,0.3798828,0.0751953c0.1337891,0,0.2666016-0.0263672,0.3925781-0.0800781
	l15.3896484-6.5595703c0.3681641-0.1572266,0.6074219-0.5195312,0.6074219-0.9199219V27.9007568l3.8203125-1.4356689V41.414917
	C50.156311,41.9249878,48.9375,43.4551392,48.9375,45.28125v4.75c0,2.2402344,1.8222656,4.0625,4.0625,4.0625
	s4.0625-1.8222656,4.0625-4.0625v-4.75c0-1.9603271-1.3953857-3.6005859-3.2451172-3.9798584V25.713501l7.9716797-2.9957275
	c0.3935547-0.1484375,0.6523438-0.5263672,0.6484375-0.9462891S62.1669922,20.9785156,61.7705078,20.8388672z M55.0625,45.28125
	v4.75c0,1.1376953-0.9248047,2.0625-2.0625,2.0625s-2.0625-0.9248047-2.0625-2.0625v-4.75
	c0-1.1376953,0.9248047-2.0625,2.0625-2.0625S55.0625,44.1435547,55.0625,45.28125z M45.9970703,39.8730469l-14.3964844,6.1367188
	l-13.6035156-5.5859375V28.6501465l13.6513672,5.130127C31.7617188,33.8222656,31.8808594,33.84375,32,33.84375
	s0.2382812-0.0214844,0.3515625-0.0634766l13.6455078-5.1279297V39.8730469z M46.6257935,26.2789307
	c-0.0096436,0.0038452-0.0192261,0.0066528-0.0286865,0.0108032L32,31.7753906l-14.6104736-5.4907837
	c-0.0026855-0.0011597-0.0054321-0.0019531-0.0081177-0.0030518L5.3701172,21.7675781l25.3330078-9.7949219l27.8154297,9.8369141
	L46.6257935,26.2789307z"/>
<path d="M19.0996094,31.2900391c-0.0898438,0.0898438-0.1601562,0.2001953-0.2099609,0.3300781
	c-0.0498047,0.1201172-0.0800781,0.25-0.0800781,0.3798828s0.0302734,0.2597656,0.0800781,0.3798828
	s0.1201172,0.2294922,0.2099609,0.3300781C19.2900391,32.8994141,19.5400391,33,19.8095703,33
	c0.1298828,0,0.2597656-0.0302734,0.3798828-0.0800781c0.1298828-0.0498047,0.2304688-0.1201172,0.3300781-0.2099609
	C20.7099609,32.5195312,20.8095703,32.2695312,20.8095703,32c0-0.2597656-0.0996094-0.5205078-0.2900391-0.7099609
	C20.1494141,30.9199219,19.4794922,30.9199219,19.0996094,31.2900391z"/>
<path d="M19.0996094,34.9199219c-0.0898438,0.0898438-0.1601562,0.2001953-0.2099609,0.3203125
	c-0.0498047,0.1298828-0.0800781,0.25-0.0800781,0.3896484c0,0.1298828,0.0302734,0.2597656,0.0800781,0.3798828
	s0.1201172,0.2304688,0.2099609,0.3203125c0.1005859,0.0996094,0.2099609,0.1699219,0.3300781,0.2197266
	s0.25,0.0703125,0.3798828,0.0703125c0.2705078,0,0.5205078-0.1005859,0.7099609-0.2900391
	c0.0898438-0.0898438,0.1699219-0.2001953,0.2207031-0.3203125c0.0498047-0.1201172,0.0693359-0.25,0.0693359-0.3798828
	c0-0.2705078-0.0996094-0.5302734-0.2900391-0.7099609C20.1494141,34.5498047,19.4794922,34.5498047,19.0996094,34.9199219z"/>
<path d="M19.0996094,38.5400391c-0.0898438,0.0996094-0.1601562,0.2001953-0.2099609,0.3300781
	c-0.0498047,0.1201172-0.0800781,0.25-0.0800781,0.3798828s0.0302734,0.2597656,0.0800781,0.3798828
	s0.1201172,0.2294922,0.2099609,0.3300781c0.1005859,0.0898438,0.2099609,0.1601562,0.3300781,0.2099609
	c0.1201172,0.0595703,0.25,0.0800781,0.3798828,0.0800781c0.2705078,0,0.5205078-0.1005859,0.7099609-0.2900391
	C20.609375,39.859375,20.6894531,39.75,20.7402344,39.6298828c0.0498047-0.1201172,0.0693359-0.25,0.0693359-0.3798828
	c0-0.2597656-0.0996094-0.5205078-0.2900391-0.7099609C20.1494141,38.1699219,19.4794922,38.1699219,19.0996094,38.5400391z"/>
</svg>
